<?xml version="1.0" encoding="UTF-8"?>
<svg xmlns="http://www.w3.org/2000/svg" version="1.1" viewBox="0 0 40 40">
  <defs>
    <style>
      .cls-1 {
        fill: #bb3033;
      }
    </style>
  </defs>
  <!-- Generator: Adobe Illustrator 28.7.0, SVG Export Plug-In . SVG Version: 1.2.0 Build 136)  -->
  <g>
    <g id="_레이어_1" data-name="레이어_1">
      <g>
        <path class="cls-1" d="M16.9,8.5c1.5.5,1.4.9-.2,1.4-3,.8-6.1,1.1-9.9,1-3-.1-3.9,0-3.7.2.2.2.2,1.5.1,3-.2,3.2.4,13,.9,13.6s.7,0,.4-2.5c-.2-1.3-.5-5-.6-8.2l-.2-5.7,1.4.3c.7.2,1.9.4,2.5.4h1.1v8.9c-.1,4.9,0,8.8.1,8.6.3-.3,1.1-12.4.9-15.1-.1-1.9,0-2.1.6-2.1s.7.2.7,6.9-.1,7.8-.3,8.9c-.2,1.5-.2,1.8.1,1.6.4-.4,1-6.7,1.3-13.4.1-3.5.2-3.9.8-4,.6-.1.7.2.9,4.4.1,4-.2,9.4-1,12.4-.1.5,0,.8.1.8.8,0,1.2-3.7,1.3-10.6,0-6,.2-7.3.6-7.4,1-.2,1.2,9.2.4,16.2-.2,1.7-.1,1.9.2,1.5.4-.4.5-2.4.7-9.2l.2-8.8h.8c.8-.2.8-.2.6,1.7-.3,2.9-.6,12.3-.6,17.5v4.6s-7.4.2-7.4.2c-4.1.1-7.6.1-7.7,0-.3-.3-.9-5.1-.6-5.1s1.4.3,2.9.7c1.5.4,3.6.7,4.6.7,2,0,5.8-.7,5.8-1s-1.2-.2-2.8-.1c-4.7.2-10.3-1.3-10.8-2.9-.4-1.3-1-15.9-.7-17.4.3-1.5.4-1.6,4.6-2s10.6-.4,11.8,0Z"/>
        <path class="cls-1" d="M25.3,14.2c.1,6,.4,6.9,1.7,6.9s1.6-1.3,1.3-6.6c-.2-2.7-.2-5.2,0-5.6.2-.4.8-.5,2.1-.4l1.9.2v5.7c0,5.9.2,6.7,1.7,6.7s1.6-1.5,1.5-7.2l-.2-5.5h2.1c0,0,2.2-.2,2.2-.2l-.2,6.5c-.2,7.6-.4,8.3-4.1,12-2.4,2.3-3.1,3.8-3.1,6.7s-.1,1.7-1,2c-.5.1-1.4.2-1.9,0-.9-.1-1-.4-1.2-3.1l-.2-2.9-2.5-2.3c-2.7-2.5-4-4.9-4.2-7.3,0-.8,0-3.8,0-6.6v-5.2s2,.1,2,.1h1.9c0,.1.1,5.9.1,5.9Z"/>
      </g>
    </g>
  </g>
</svg>