<?xml version="1.0" encoding="UTF-8"?>
<svg xmlns="http://www.w3.org/2000/svg" xmlns:xlink="http://www.w3.org/1999/xlink" version="1.1" viewBox="0 0 65.9 56">
  <defs>
    <style>
      .cls-1 {
        fill: url(#_무제_그라디언트_9);
      }

      .cls-2 {
        fill: #fff;
      }

      .cls-3 {
        fill: url(#_무제_그라디언트_9-3);
      }

      .cls-4 {
        fill: url(#_무제_그라디언트_9-2);
      }
    </style>
    <linearGradient id="_무제_그라디언트_9" data-name="무제 그라디언트 9" x1="8.4" y1="52.9" x2="58.3" y2="3" gradientUnits="userSpaceOnUse">
      <stop offset="0" stop-color="#7f222c"/>
      <stop offset="1" stop-color="#bd3235"/>
    </linearGradient>
    <linearGradient id="_무제_그라디언트_9-2" data-name="무제 그라디언트 9" x1="32.8" y1="35.9" x2="35" y2="35.9" xlink:href="#_무제_그라디언트_9"/>
    <linearGradient id="_무제_그라디언트_9-3" data-name="무제 그라디언트 9" x1="26.7" y1="33.5" x2="29.4" y2="33.5" xlink:href="#_무제_그라디언트_9"/>
  </defs>
  <!-- Generator: Adobe Illustrator 28.7.0, SVG Export Plug-In . SVG Version: 1.2.0 Build 136)  -->
  <g>
    <g id="_레이어_1" data-name="레이어_1">
      <g>
        <rect class="cls-2" x="18.1" y="5.4" width="36.8" height="36.8" rx="13.6" ry="13.6"/>
        <g>
          <path class="cls-1" d="M14.1,0c-3.7.5-7.1,3.5-8.3,7.3l-.3.9v19.7c0,22.1,0,20.1,1,22.3,1.6,3.2,4.7,5.3,8.2,5.7.8,0,7.5.1,19.5,0h18.2s1.1-.4,1.1-.4c3.5-1,6.2-3.6,7.3-7.1.5-1.6.5-3,.5-21.7V8.9c0,0-.3-1-.3-1-1-3.7-3.5-6.3-7.3-7.6l-.9-.3h-19C23.4,0,14.5,0,14.1,0ZM36.1,10.4c.5.2.5.3,0,.5-1.1.3-2.2.4-3.6.4-1.1,0-1.5,0-1.4,0,0,0,0,.6,0,1.1,0,1.2.1,4.8.3,5s.3,0,.1-.9c0-.5-.2-1.9-.2-3v-2.1c0,0,.4.1.4.1.3,0,.7.1.9.1h.4v3.3c0,1.8,0,3.2,0,3.2.1-.1.4-4.6.3-5.6,0-.7,0-.8.2-.8s.3,0,.3,2.5,0,2.9-.1,3.3c0,.5,0,.7,0,.6.2-.2.4-2.5.5-5,0-1.3,0-1.4.3-1.5.2,0,.2,0,.3,1.6,0,1.5,0,3.5-.4,4.6,0,.2,0,.3,0,.3.3,0,.5-1.3.5-3.9,0-2.2,0-2.7.2-2.7.4,0,.4,3.4.1,6,0,.6,0,.7,0,.5.1-.1.2-.9.2-3.4v-3.2c0,0,.4,0,.4,0,.3,0,.3,0,.2.7-.1,1.1-.2,4.5-.2,6.5v1.7s-2.7,0-2.7,0c-1.5,0-2.8,0-2.8,0-.1-.1-.3-1.9-.2-1.9s.5.1,1.1.3,1.3.3,1.7.3c.7,0,2.2-.2,2.2-.4s-.5,0-1,0c-1.7,0-3.8-.5-4-1.1-.1-.5-.4-5.9-.3-6.4.1-.5.1-.6,1.7-.7s3.9-.2,4.4,0ZM31.8,23.3c0,1.9.1,2.2.6,2.2s.5-.4.4-2.1c0-.9,0-1.7,0-1.8,0-.1.2-.2.7-.1h.6v1.9c0,1.9,0,2.2.5,2.2s.5-.5.5-2.3v-1.8c0,0,.6,0,.6,0h.7s0,2.1,0,2.1c0,2.4-.1,2.7-1.3,3.9-.8.8-1,1.2-1,2.2s0,.6-.3.6c-.2,0-.5,0-.6,0-.3,0-.3-.1-.4-1v-1c0,0-.9-.8-.9-.8-.9-.8-1.3-1.6-1.3-2.4,0-.2,0-1.2,0-2.1v-1.7s.6,0,.6,0h.6s0,1.9,0,1.9ZM24.8,29.8c.2,0,.3.2.3.8v.7h-.9c-.8,0-.9,0-1.2.4-.3.3-.4.5-.4.8v.5h1.8v1.6h-.9s-.9,0-.9,0v1.5s0,1.5,0,1.5h-1.6v-3c0-2.6,0-3,.2-3.5.3-.6.8-1,1.5-1.3.5-.2,1.6-.2,2-.1ZM44.4,30.6v.9s.7,0,.7,0h.6v1.5h-1.3v1c-.2,1,0,2,.1,2.3,0,.1.3.2.7.1h.5s0,.7,0,.7v.7h-.8c-1,0-1.5-.2-1.9-1.1-.2-.5-.3-.8-.2-2.1v-1.6c0,0-.4,0-.4,0h-.4v-1.6h.4q.4.2.4-.5v-.7s.7-.2.7-.2c.4-.1.7-.2.7-.2,0,0,.1.4.1.9ZM35.2,31.9c.4.2.7.5.9.9.3.5.3.7.3,2.8v2.2h-.7c-.6,0-.7,0-.7-.3s0-.3-.4,0c-.5.4-1.8.5-2.4.2-.5-.3-1-1.1-1-1.7s.1-.6.3-.8c.4-.7,1.1-1,2.4-1,.6,0,1.1-.1,1.1-.2,0-.3-.3-.8-.7-.9-.4-.2-.9,0-1.9.2-.2,0-.3,0-.5-.5-.3-.7-.2-.7.7-1.1.8-.3,1.8-.2,2.6.2ZM40.2,31.6c.2,0,.7.2.9.3l.4.2-.3.5c-.2.3-.3.5-.3.5s-.3,0-.6-.2c-.7-.2-1-.3-1.3,0-.2.1-.2.3-.2.4,0,.3.4.5,1.4.7,1,.3,1.7,1.2,1.5,2-.1.5-.6,1.2-1.1,1.5-.5.3-1.7.3-2.4,0s-1.2-.6-1.2-.8c0,0,.2-.3.4-.5l.4-.4.6.3c1,.4,1.8.3,1.8-.3s-.6-.6-.9-.6-.4-.1-.8-.3c-1.8-.8-1.5-3.1.4-3.5.2,0,.5,0,.6,0,.1,0,.4,0,.7.1ZM29.1,31.8c1.2.6,1.6,1.4,1.6,3v.4h-2.1c-1.1,0-2,0-2,0,0,.3.5.8.8,1,.6.3,1,.3,1.6,0q.5-.2,1,.2c.2.2.5.4.5.4s-.2.2-.5.4c-1.6,1.1-3.6.5-4.5-1.2-.3-.6-.4-1.9-.2-2.5.2-.7.8-1.5,1.5-1.8.7-.3,1.8-.3,2.3,0Z"/>
          <path class="cls-4" d="M33.2,35.4c-.5.2-.5.9-.1,1.1.7.4,1.9-.2,1.9-.9s0-.4-.7-.4-.9,0-1.1.2Z"/>
          <path class="cls-3" d="M27.4,33.1c-.4.2-.6.6-.6.8s.5.1,1.3.1h1.3l-.2-.4c-.1-.2-.3-.4-.4-.5-.3-.3-1-.3-1.4,0Z"/>
        </g>
      </g>
    </g>
  </g>
</svg>