<?xml version="1.0" encoding="UTF-8"?>
<svg xmlns="http://www.w3.org/2000/svg" version="1.1" viewBox="0 0 43 42">
  <defs>
    <style>
      .cls-1 {
        fill: #fff3f2;
      }

      .cls-2 {
        fill: #eaedff;
      }

      .cls-2, .cls-3 {
        fill-rule: evenodd;
      }

      .cls-3 {
        fill: #2ef2ff;
        isolation: isolate;
        opacity: 0;
      }
    </style>
  </defs>
  <!-- Generator: Adobe Illustrator 28.7.0, SVG Export Plug-In . SVG Version: 1.2.0 Build 136)  -->
  <g>
    <g id="_레이어_1" data-name="레이어_1">
      <path class="cls-3" d="M31.5,2H11.5c-2.1,0-4.1.7-5.6,2l9.3,9.3c1.7-1.4,3.9-2.3,6.3-2.3s4.6.8,6.3,2.3l9.3-9.3c-1.5-1.2-3.5-2-5.6-2ZM26.4,14.7c-1.4-1.1-3.1-1.7-4.9-1.7s-3.6.6-4.9,1.7l4.9,4.9,4.9-4.9ZM13.8,14.7L4.5,5.4c-1.2,1.5-2,3.5-2,5.6v20c0,2.1.7,4.1,2,5.6l9.3-9.3c-1.4-1.7-2.3-3.9-2.3-6.3s.8-4.6,2.3-6.3ZM15.2,25.9c-1.1-1.4-1.7-3.1-1.7-4.9s.6-3.6,1.7-4.9l4.9,4.9-4.9,4.9ZM15.2,28.7l-9.3,9.3c1.5,1.2,3.5,2,5.6,2h20c2.1,0,4.1-.7,5.6-2l-9.3-9.3c-1.7,1.4-3.9,2.3-6.3,2.3s-4.6-.8-6.3-2.3ZM26.4,27.3c-1.4,1.1-3.1,1.7-4.9,1.7s-3.6-.6-4.9-1.7l4.9-4.9,4.9,4.9ZM27.8,25.9l-4.9-4.9,4.9-4.9c1.1,1.4,1.7,3.1,1.7,4.9s-.6,3.6-1.7,4.9ZM29.2,27.3c1.4-1.7,2.3-3.9,2.3-6.3s-.8-4.6-2.3-6.3l9.3-9.3c1.2,1.5,2,3.5,2,5.6v20c0,2.1-.7,4.1-2,5.6l-9.3-9.3ZM11.5,0C5.4,0,.5,4.9.5,11v20c0,6.1,4.9,11,11,11h20c6.1,0,11-4.9,11-11V11C42.5,4.9,37.6,0,31.5,0H11.5Z"/>
      <path class="cls-2" d="M12,26.5c0-.6.4-1,1-1h5.5c.6,0,1,.4,1,1s-.4,1-1,1h-5.5c-.6,0-1-.4-1-1Z"/>
      <g>
        <path class="cls-1" d="M19.8,11.2c1.1.4,1,.7-.2,1-2.3.6-4.5.8-7.4.7-2.2,0-2.9,0-2.7.2.2.2.2,1.1.1,2.3-.2,2.4.3,9.7.7,10.1s.6,0,.3-1.8c-.2-1-.3-3.7-.4-6.1l-.2-4.3,1,.2c.6.1,1.4.3,1.9.3h.8v6.6c-.1,3.6,0,6.5,0,6.4.2-.2.8-9.2.7-11.3,0-1.4,0-1.6.4-1.6s.5.2.5,5.1-.1,5.8-.2,6.6c-.2,1.1-.1,1.4.1,1.2.3-.3.8-5,1-10,0-2.6.2-2.9.6-3,.5,0,.5.2.7,3.3.1,3-.2,7-.7,9.3,0,.3,0,.6.1.6.6,0,.9-2.7,1-7.9,0-4.4.1-5.4.4-5.5.7-.2.9,6.9.3,12.1-.2,1.2-.1,1.4.2,1.1.3-.3.4-1.8.5-6.9v-6.5c.1,0,.7,0,.7,0,.6,0,.6,0,.5,1.3-.2,2.2-.5,9.2-.5,13v3.5s-5.5.2-5.5.2c-3.1.1-5.7.1-5.8,0-.2-.2-.6-3.8-.4-3.8s1,.2,2.2.5,2.7.5,3.4.5c1.5,0,4.4-.5,4.4-.8s-.9-.1-2.1,0c-3.5.2-7.7-1-8.1-2.1-.3-1-.8-11.9-.6-12.9.2-1.1.3-1.2,3.5-1.5s7.9-.3,8.8,0Z"/>
        <path class="cls-1" d="M26.2,15.5c0,4.4.3,5.1,1.3,5.1s1.2-1,1-4.9c-.1-2-.1-3.9,0-4.1.1-.3.6-.4,1.6-.3h1.4v4.4c0,4.4.1,5,1.3,5s1.2-1.1,1.1-5.3v-4c-.1,0,1.5,0,1.5,0h1.6c0,0-.1,4.7-.1,4.7-.1,5.6-.3,6.1-3,8.8-1.8,1.7-2.3,2.8-2.3,5s0,1.3-.7,1.5c-.4,0-1,.1-1.4,0-.7,0-.7-.3-.9-2.3v-2.2c-.1,0-2-1.7-2-1.7-2-1.8-3-3.6-3.1-5.4,0-.6,0-2.8,0-4.9v-3.8s1.5,0,1.5,0h1.4c0,0,0,4.4,0,4.4Z"/>
      </g>
    </g>
  </g>
</svg>